<svg width="229" height="53" viewBox="0 0 229 53" fill="none" xmlns="http://www.w3.org/2000/svg">
<path d="M27.2378 9.22339V40.6727H19.5798V27.7241H7.65797V40.6727H0V9.22339H7.65797V21.5441H19.5733V9.22339H27.2312H27.2378Z" fill="#1EA0DA"/>
<path d="M45.4246 15.6714V40.666H37.7666V15.6714H45.4246Z" fill="#1EA0DA"/>
<path d="M67.0184 16.5935C68.359 15.8022 69.8566 15.4033 71.4981 15.4033V23.5125H69.3923C67.4827 23.5125 66.0505 23.9245 65.0892 24.742C64.1344 25.566 63.657 27.0047 63.657 29.0647V40.6661H55.999V15.6714H63.657V19.8372C64.5529 18.4639 65.6712 17.3783 67.0184 16.587V16.5935Z" fill="#1EA0DA"/>
<path d="M103.616 30.0064H86.2789C86.3966 31.5629 86.9002 32.7466 87.7765 33.5706C88.6593 34.3946 89.7384 34.8 91.0267 34.8C92.9363 34.8 94.2704 33.9956 95.0159 32.3803H103.171C102.752 34.0218 102 35.4998 100.908 36.8142C99.816 38.1287 98.4492 39.162 96.8078 39.9075C95.1663 40.653 93.3287 41.0258 91.2948 41.0258C88.8424 41.0258 86.6647 40.5026 84.7551 39.4563C82.8456 38.4099 81.348 36.9189 80.2755 34.9766C79.203 33.0343 78.6602 30.765 78.6602 28.1688C78.6602 25.5725 79.1899 23.3033 80.2493 21.361C81.3087 19.4187 82.7932 17.9276 84.7094 16.8813C86.6189 15.8349 88.8163 15.3118 91.2948 15.3118C93.7734 15.3118 95.8661 15.8219 97.7429 16.8355C99.6198 17.8492 101.098 19.301 102.157 21.1779C103.217 23.0547 103.746 25.2521 103.746 27.7633C103.746 28.4827 103.701 29.2282 103.609 29.9999L103.616 30.0064ZM95.9118 25.7556C95.9118 24.4412 95.4671 23.3948 94.5712 22.6166C93.6753 21.8384 92.557 21.4525 91.2098 21.4525C89.8626 21.4525 88.8424 21.8253 87.9596 22.5708C87.0767 23.3163 86.5339 24.3758 86.3247 25.7491H95.9118V25.7556Z" fill="#1EA0DA"/>
<path d="M136.229 27.2533C137.334 28.6724 137.883 30.2942 137.883 32.1123C137.883 34.7412 136.968 36.8274 135.13 38.3642C133.292 39.901 130.735 40.6727 127.446 40.6727H112.797V9.22339H126.955C130.153 9.22339 132.651 9.95583 134.456 11.4207C136.261 12.8856 137.164 14.8671 137.164 17.3784C137.164 19.2291 136.68 20.7659 135.705 21.9954C134.738 23.2183 133.443 24.0685 131.834 24.5524C133.658 24.9382 135.117 25.8473 136.222 27.2598L136.229 27.2533ZM120.461 21.9431H125.477C126.733 21.9431 127.694 21.6684 128.368 21.1125C129.041 20.5632 129.375 19.7457 129.375 18.6732C129.375 17.6007 129.041 16.7767 128.368 16.2078C127.694 15.6388 126.733 15.3576 125.477 15.3576H120.461V21.9431ZM129.081 33.6164C129.78 33.0344 130.134 32.1907 130.134 31.0855C130.134 29.9803 129.767 29.1171 129.035 28.4893C128.302 27.8615 127.295 27.5476 126.014 27.5476H120.461V34.4927H126.105C127.387 34.4927 128.381 34.1984 129.087 33.6164H129.081Z" fill="#1EA0DA"/>
<path d="M170.764 30.0064H153.427C153.545 31.5629 154.049 32.7466 154.925 33.5706C155.808 34.3946 156.887 34.8 158.175 34.8C160.085 34.8 161.419 33.9956 162.164 32.3803H170.319C169.901 34.0218 169.149 35.4998 168.057 36.8142C166.964 38.1287 165.598 39.162 163.956 39.9075C162.315 40.653 160.477 41.0258 158.443 41.0258C155.991 41.0258 153.813 40.5026 151.904 39.4563C149.994 38.4099 148.496 36.9189 147.424 34.9766C146.351 33.0343 145.809 30.765 145.809 28.1688C145.809 25.5725 146.338 23.3033 147.398 21.361C148.457 19.4187 149.942 17.9276 151.858 16.8813C153.767 15.8349 155.965 15.3118 158.443 15.3118C160.922 15.3118 163.014 15.8219 164.891 16.8355C166.768 17.8492 168.246 19.301 169.306 21.1779C170.365 23.0547 170.895 25.2521 170.895 27.7633C170.895 28.4827 170.849 29.2282 170.757 29.9999L170.764 30.0064ZM163.06 25.7556C163.06 24.4412 162.616 23.3948 161.72 22.6166C160.824 21.8384 159.705 21.4525 158.358 21.4525C157.011 21.4525 155.991 21.8253 155.108 22.5708C154.225 23.3163 153.682 24.3758 153.473 25.7491H163.06V25.7556Z" fill="#1EA0DA"/>
<path d="M190.971 16.5935C192.312 15.8022 193.81 15.4033 195.451 15.4033V23.5125H193.345C191.436 23.5125 190.004 23.9245 189.042 24.742C188.088 25.566 187.61 27.0047 187.61 29.0647V40.6661H179.952V15.6714H187.61V19.8372C188.506 18.4639 189.624 17.3783 190.971 16.587V16.5935Z" fill="#1EA0DA"/>
<path d="M218.275 16.3909C219.602 17.1103 220.629 18.052 221.342 19.2161V15.6781H229V40.6335C229 42.9355 228.542 45.0151 227.633 46.8854C226.724 48.7493 225.331 50.2403 223.467 51.3455C221.604 52.4507 219.275 53 216.503 53C212.801 53 209.799 52.1237 207.497 50.3776C205.195 48.6315 203.881 46.2642 203.554 43.2755H211.127C211.362 44.2303 211.931 44.9824 212.827 45.5383C213.723 46.0876 214.828 46.3688 216.143 46.3688C217.726 46.3688 218.988 45.911 219.929 45.002C220.871 44.093 221.342 42.6347 221.342 40.6335V37.0955C220.596 38.2596 219.563 39.2079 218.249 39.9403C216.934 40.6728 215.397 41.039 213.632 41.039C211.572 41.039 209.701 40.5093 208.034 39.4498C206.36 38.3904 205.039 36.8797 204.071 34.9244C203.103 32.969 202.612 30.7063 202.612 28.1362C202.612 25.5661 203.096 23.3164 204.071 21.3742C205.039 19.4319 206.36 17.9408 208.034 16.8945C209.708 15.8481 211.572 15.325 213.632 15.325C215.391 15.325 216.941 15.6846 218.268 16.3975L218.275 16.3909ZM219.753 23.65C218.693 22.5448 217.399 21.9889 215.875 21.9889C214.351 21.9889 213.063 22.5317 212.003 23.6238C210.944 24.7159 210.414 26.2135 210.414 28.1231C210.414 30.0327 210.944 31.5499 212.003 32.6682C213.063 33.7865 214.358 34.3489 215.875 34.3489C217.392 34.3489 218.687 33.7995 219.753 32.6878C220.812 31.5826 221.342 30.0719 221.342 28.1623C221.342 26.2528 220.812 24.7421 219.753 23.6369V23.65Z" fill="#1EA0DA"/>
<path d="M32.4043 12.4212L41.6579 0.394775L50.9181 12.4212H32.4043Z" fill="#1EA0DA"/>
</svg>
